<?xml version="1.0" standalone="no"?><!DOCTYPE svg PUBLIC "-//W3C//DTD SVG 1.1//EN" "http://www.w3.org/Graphics/SVG/1.1/DTD/svg11.dtd"><svg t="1625710557181" class="icon" viewBox="0 0 1024 1024" version="1.1" xmlns="http://www.w3.org/2000/svg" p-id="1236" xmlns:xlink="http://www.w3.org/1999/xlink" width="200" height="200"><defs><style type="text/css"></style></defs><path d="M512 618.666667A309.333333 309.333333 0 1 0 202.666667 309.333333 309.546667 309.546667 0 0 0 512 618.666667z m0-554.666667a245.333333 245.333333 0 1 1-245.333333 245.333333A245.546667 245.546667 0 0 1 512 64zM919.466667 801.706667l-243.84-104.746667a438.4 438.4 0 0 0-350.506667 2.56L104.106667 798.08A32 32 0 0 0 85.333333 827.306667v164.266666A32 32 0 0 0 117.12 1024h789.333333a32 32 0 0 0 32-32V832a32.213333 32.213333 0 0 0-18.986666-30.293333zM874.666667 960H149.333333v-112l202.026667-90.026667a373.973333 373.973333 0 0 1 298.666667-2.133333L874.666667 853.333333z" p-id="1237" fill="#FFFFFF"></path><path d="M373.333333 394.666667A32 32 0 0 0 405.333333 362.666667v-106.666667a32 32 0 0 0-64 0v106.666667a32 32 0 0 0 32 32zM544 394.666667A32 32 0 0 0 576 362.666667v-106.666667a32 32 0 0 0-64 0v106.666667a32 32 0 0 0 32 32zM512 768a32 32 0 0 0-32 32v64a32 32 0 0 0 64 0v-64A32 32 0 0 0 512 768z" p-id="1238" fill="#FFFFFF"></path></svg>